<?xml version="1.0" encoding="utf-8"?>
<!-- Generator: Adobe Illustrator 25.4.1, SVG Export Plug-In . SVG Version: 6.00 Build 0)  -->
<svg version="1.1" id="Layer_1" xmlns="http://www.w3.org/2000/svg" xmlns:xlink="http://www.w3.org/1999/xlink" x="0px" y="0px"
	 viewBox="0 0 512 512" style="enable-background:new 0 0 512 512;" xml:space="preserve">
<style type="text/css">
	.st0{fill:#666666;}
</style>
<g id="XMLID_1_">
	<path id="XMLID_3_" class="st0" d="M384.6,190.3c-7.3,7.9-19.7,7.9-27.6,0L267,101v342.5c0,10.3-8,19.2-18.4,19.5
		c-10.8,0.3-19.7-8.3-19.7-19V101l-90.1,90c-7.9,7.3-19.7,7.3-27.6,0c-7.3-7.9-7.3-19.7,0-26.9L234.1,41.2c2-1.3,3.9-3.3,5.9-3.9
		c2.7-1.3,4.6-1.3,7.3-1.3c5.3,0,9.8,2,13.8,5.3l122.9,122.2C392.5,170.7,392.5,183.1,384.6,190.3L384.6,190.3z"/>
</g>
</svg>
